<?xml version="1.0" standalone="no"?>
<!DOCTYPE svg PUBLIC "-//W3C//DTD SVG 20010904//EN"
 "http://www.w3.org/TR/2001/REC-SVG-20010904/DTD/svg10.dtd">
<svg version="1.0" xmlns="http://www.w3.org/2000/svg"
 width="1221.000000pt" height="1280.000000pt" viewBox="0 0 1221.000000 1280.000000"
 preserveAspectRatio="xMidYMid meet">
<metadata>
Created by potrace 1.15, written by Peter Selinger 2001-2017
</metadata>
<g transform="translate(0.000000,1280.000000) scale(0.100000,-0.100000)"
fill="#000000" stroke="none">
<path d="M7050 12343 c-239 -250 -503 -526 -585 -612 -83 -86 -579 -605 -1104
-1153 -791 -829 -957 -997 -975 -993 -11 3 -136 23 -276 46 -140 22 -403 65
-585 94 -181 30 -418 68 -525 85 -193 31 -517 83 -1110 180 -168 27 -503 81
-745 120 -242 40 -577 94 -745 121 -396 64 -400 65 -400 49 0 -7 148 -288 329
-624 180 -336 602 -1119 936 -1741 334 -621 661 -1229 725 -1349 l118 -219
-48 -91 c-26 -50 -182 -352 -345 -671 -327 -637 -499 -972 -958 -1865 -579
-1127 -695 -1355 -693 -1357 1 -2 313 54 692 123 555 101 1195 217 1569 284
28 5 226 41 440 80 215 39 413 75 440 80 466 84 928 168 1076 195 l186 34 684
-687 c871 -874 2064 -2076 2284 -2300 94 -96 176 -171 185 -170 10 2 18 29 27
93 6 50 37 274 67 500 30 226 92 678 136 1005 45 327 103 759 130 960 27 201
59 433 70 515 11 83 43 314 70 515 27 201 59 433 70 515 12 83 26 187 32 232
l11 83 371 189 c204 104 682 345 1061 536 380 191 753 380 830 420 77 40 494
251 928 469 433 219 787 403 787 410 0 7 -62 42 -137 79 -76 36 -228 109 -338
163 -110 53 -240 116 -290 139 -49 24 -166 80 -260 125 -93 45 -219 106 -280
135 -60 29 -180 86 -265 127 -246 119 -1181 570 -1830 882 -327 158 -600 292
-607 299 -6 7 -32 147 -57 312 -25 165 -84 550 -132 855 -47 305 -121 782
-164 1060 -43 278 -117 757 -165 1065 -48 308 -106 684 -129 835 -32 211 -45
275 -56 277 -8 2 -208 -200 -450 -454z"/>
</g>
</svg>
